<svg xmlns="http://www.w3.org/2000/svg" viewBox="0 0 99.85 99.75"><defs><style>.cls-1{fill:#fff;}</style></defs><g id="Capa_2" data-name="Capa 2"><g id="katman_1" data-name="katman 1"><path class="cls-1" d="M50,24.38A25.6,25.6,0,1,0,75.58,50,25.58,25.58,0,0,0,50,24.38Zm0,42.19A16.6,16.6,0,1,1,66.58,50,16.69,16.69,0,0,1,50,66.57ZM82.57,23.38a6,6,0,1,1-6-6A6,6,0,0,1,82.57,23.38Zm16.91,6c-.4-8-2.2-15.11-8.1-20.9S78.48.78,70.48.38c-8.2-.5-32.9-.5-41.1,0-8,.39-15,2.19-20.9,8S.78,21.27.38,29.27c-.5,8.2-.5,32.91,0,41.1.39,8,2.19,15.1,8.1,20.9s12.9,7.7,20.9,8.1c8.19.5,32.89.5,41.1,0,8-.4,15.1-2.2,20.9-8.1s7.7-12.9,8.1-20.9.5-32.8,0-41Zm-10.6,50a16.77,16.77,0,0,1-9.5,9.49c-6.61,2.6-22.11,2-29.4,2s-22.8.6-29.4-2a16.76,16.76,0,0,1-9.5-9.5c-2.6-6.6-2-22.1-2-29.4s-.6-22.8,2-29.4a16.81,16.81,0,0,1,9.5-9.5c6.6-2.6,22.1-2,29.4-2s22.8-.6,29.4,2a16.84,16.84,0,0,1,9.5,9.5c2.6,6.61,2,22.11,2,29.4S91.48,72.77,88.88,79.38Z"/></g></g></svg>