<svg id="Objects" xmlns="http://www.w3.org/2000/svg" viewBox="0 0 755.15 476.41"><defs><style>.cls-1{fill:#d4d4d4;}.cls-1,.cls-2,.cls-4{stroke:#f7f8f8;}.cls-1,.cls-2,.cls-3,.cls-4,.cls-6{stroke-miterlimit:10;}.cls-2,.cls-8{fill:#19434c;}.cls-3,.cls-4,.cls-6,.cls-9{fill:none;}.cls-3{stroke:#9d9d9d;}.cls-5{fill:#fff;}.cls-6{stroke:#c99c61;}.cls-7{fill:#89878c;}</style></defs><polygon class="cls-1" points="538.73 401.11 322.8 401.11 322.8 475.91 538.73 475.91 754.65 475.91 754.65 401.11 538.73 401.11"/><polygon class="cls-2" points="0.55 176.66 0.55 251.46 0.55 326.25 0.55 401.05 0.55 475.84 108.28 475.84 108.28 401.05 108.28 326.25 108.28 251.46 108.28 176.66 0.55 176.66"/><rect class="cls-3" x="323.71" y="401.11" width="107.74" height="74.8"/><rect class="cls-3" x="431.44" y="401.11" width="107.74" height="74.8"/><rect class="cls-3" x="539.18" y="401.11" width="107.74" height="74.8"/><rect class="cls-3" x="646.92" y="401.11" width="107.74" height="74.8"/><rect class="cls-4" x="323.71" y="401.11" width="107.74" height="74.8"/><rect class="cls-4" x="431.44" y="401.11" width="107.74" height="74.8"/><rect class="cls-4" x="539.18" y="401.11" width="107.74" height="74.8"/><rect class="cls-4" x="646.92" y="401.11" width="107.74" height="74.8"/><path class="cls-5" d="M171.5,216.67H62.76V140.88H171.5Zm-107.74-1H170.5V141.88H63.76Zm215.47,1H170.5V140.88H279.23Zm-107.73-1H278.23V141.88H171.5Zm215.47,1H278.23V140.88H387Zm-107.74-1H386V141.88H279.23Zm215.47,1H386V140.88H494.7Zm-107.73-1H493.7V141.88H387Zm215.47,1H493.7V140.88H602.44Zm-107.74-1H601.44V141.88H494.7Zm215.48,1H601.44V140.88H710.18Zm-107.74-1H709.18V141.88H602.44Zm215.47,1H709.18V140.88H817.91Zm-107.73-1H816.91V141.88H710.18ZM171.5,291.47H62.76v-75.8H171.5Zm-107.74-1H170.5v-73.8H63.76Zm215.47,1H170.5v-75.8H279.23Zm-107.73-1H278.23v-73.8H171.5Zm215.47,1H278.23v-75.8H387Zm-107.74-1H386v-73.8H279.23Zm215.47,1H386v-75.8H494.7Zm-107.73-1H493.7v-73.8H387Zm215.47,1H493.7v-75.8H602.44Zm-107.74-1H601.44v-73.8H494.7Zm215.48,1H601.44v-75.8H710.18Zm-107.74-1H709.18v-73.8H602.44Zm215.47,1H709.18v-75.8H817.91Zm-107.73-1H816.91v-73.8H710.18ZM171.5,366.27H62.76v-75.8H171.5Zm-107.74-1H170.5v-73.8H63.76Zm215.47,1H170.5v-75.8H279.23Zm-107.73-1H278.23v-73.8H171.5Zm215.47,1H278.23v-75.8H387Zm-107.74-1H386v-73.8H279.23Zm215.47,1H386v-75.8H494.7Zm-107.73-1H493.7v-73.8H387Zm215.47,1H493.7v-75.8H602.44Zm-107.74-1H601.44v-73.8H494.7Zm215.48,1H601.44v-75.8H710.18Zm-107.74-1H709.18v-73.8H602.44Zm215.47,1H709.18v-75.8H817.91Zm-107.73-1H816.91v-73.8H710.18ZM171.5,441.06H62.76V365.27H171.5Zm-107.74-1H170.5V366.27H63.76Zm215.47,1H170.5V365.27H279.23Zm-107.73-1H278.23V366.27H171.5Zm215.47,1H278.23V365.27H387Zm-107.74-1H386V366.27H279.23Zm215.47,1H386V365.27H494.7Zm-107.73-1H493.7V366.27H387Zm215.47,1H493.7V365.27H602.44Zm-107.74-1H601.44V366.27H494.7Zm215.48,1H601.44V365.27H710.18Zm-107.74-1H709.18V366.27H602.44Zm215.47,1H709.18V365.27H817.91Zm-107.73-1H816.91V366.27H710.18ZM171.5,515.86H62.76v-75.8H171.5Zm-107.74-1H170.5v-73.8H63.76Zm215.47,1H170.5v-75.8H279.23Zm-107.73-1H278.23v-73.8H171.5Zm215.47,1H278.23v-75.8H387Zm-107.74-1H386v-73.8H279.23ZM156.39,134.54l.7-1.46a6.74,6.74,0,0,0,4.32,1.52c2.27,0,3.24-.88,3.24-2,0-3.2-7.94-1.17-7.94-6,0-2,1.57-3.75,5-3.75a7.72,7.72,0,0,1,4.21,1.17l-.62,1.49a6.74,6.74,0,0,0-3.59-1.06c-2.23,0-3.18.93-3.18,2.07,0,3.2,7.93,1.2,7.93,6,0,2-1.61,3.73-5.07,3.73A7.82,7.82,0,0,1,156.39,134.54Zm0,0,.7-1.46a6.74,6.74,0,0,0,4.32,1.52c2.27,0,3.24-.88,3.24-2,0-3.2-7.94-1.17-7.94-6,0-2,1.57-3.75,5-3.75a7.72,7.72,0,0,1,4.21,1.17l-.62,1.49a6.74,6.74,0,0,0-3.59-1.06c-2.23,0-3.18.93-3.18,2.07,0,3.2,7.93,1.2,7.93,6,0,2-1.61,3.73-5.07,3.73A7.82,7.82,0,0,1,156.39,134.54Zm116,1.39,0-9.55-4.73,8h-.86l-4.74-7.9v9.49h-1.8v-13.1h1.54l5.46,9.2,5.4-9.2h1.53l0,13.1Zm0,0,0-9.55-4.73,8h-.86l-4.74-7.9v9.49h-1.8v-13.1h1.54l5.46,9.2,5.4-9.2h1.53l0,13.1ZM375.63,124.5h-4.5v-1.63H382v1.63h-4.49V136h-1.85Zm0,0h-4.5v-1.63H382v1.63h-4.49V136h-1.85Zm113.84-1.63L485.09,136h-2l-3.57-10.46L476,136h-2l-4.38-13.1h1.92l3.54,10.65,3.69-10.65h1.72l3.62,10.71,3.61-10.71Zm0,0L485.09,136h-2l-3.57-10.46L476,136h-2l-4.38-13.1h1.92l3.54,10.65,3.69-10.65h1.72l3.62,10.71,3.61-10.71Zm101.63,1.6h-4.49v-1.63h10.84v1.63H593v11.47H591.1Zm0,0h-4.49v-1.63h10.84v1.63H593v11.47H591.1Zm106.73,0v4.57h6.57v1.61h-6.57V136H696V122.87h9.24v1.63Zm0,0v4.57h6.57v1.61h-6.57V136H696V122.87h9.24v1.63Zm104.85,10.11.7-1.47a6.66,6.66,0,0,0,4.32,1.52c2.27,0,3.24-.88,3.24-2,0-3.2-7.94-1.18-7.94-6,0-2,1.57-3.74,5-3.74a7.71,7.71,0,0,1,4.21,1.16l-.62,1.5a6.76,6.76,0,0,0-3.59-1.07c-2.23,0-3.18.94-3.18,2.08,0,3.2,7.93,1.2,7.93,6,0,2-1.61,3.72-5.07,3.72A7.81,7.81,0,0,1,802.68,134.61Zm0,0,.7-1.47a6.66,6.66,0,0,0,4.32,1.52c2.27,0,3.24-.88,3.24-2,0-3.2-7.94-1.18-7.94-6,0-2,1.57-3.74,5-3.74a7.71,7.71,0,0,1,4.21,1.16l-.62,1.5a6.76,6.76,0,0,0-3.59-1.07c-2.23,0-3.18.94-3.18,2.08,0,3.2,7.93,1.2,7.93,6,0,2-1.61,3.72-5.07,3.72A7.81,7.81,0,0,1,802.68,134.61ZM69.78,39.69l4.59,13,4.57-13h4.85v17.9h-3.7V52.7l.37-8.45L75.63,57.59H73.09L68.28,44.27l.36,8.43v4.89H65V39.69ZM97.33,53.9H90.87l-1.23,3.69H85.72l6.66-17.9H95.8l6.7,17.9H98.57Zm-5.47-3h4.48l-2.25-6.7Zm16.63-3.16,3.73-8.07h4L110.38,51.1v6.49h-3.75V51.1l-5.88-11.41h4ZM136,57.59H123.77V55.16L129.56,49a14,14,0,0,0,1.77-2.28,3.63,3.63,0,0,0,.57-1.84,2.76,2.76,0,0,0-.6-1.88,2.21,2.21,0,0,0-1.72-.68,2.34,2.34,0,0,0-1.9.83,3.26,3.26,0,0,0-.7,2.18h-3.56a5.84,5.84,0,0,1,.78-3,5.48,5.48,0,0,1,2.2-2.12,6.63,6.63,0,0,1,3.24-.77,6.31,6.31,0,0,1,4.29,1.33,4.68,4.68,0,0,1,1.53,3.74,6.14,6.14,0,0,1-.68,2.71,15.15,15.15,0,0,1-2.36,3.21l-4.07,4.29H136Zm14.22-7.4a9.09,9.09,0,0,1-1.53,5.68,5.38,5.38,0,0,1-4.5,2,5.44,5.44,0,0,1-4.48-1.93,8.79,8.79,0,0,1-1.58-5.53v-3.3a9,9,0,0,1,1.55-5.69,6.16,6.16,0,0,1,9,0,8.77,8.77,0,0,1,1.58,5.53Zm-3.55-3.62a6.46,6.46,0,0,0-.61-3.24,2,2,0,0,0-1.9-1,2,2,0,0,0-1.85,1,6.16,6.16,0,0,0-.63,3v4.35a6.87,6.87,0,0,0,.6,3.26,2.25,2.25,0,0,0,3.79,0,6.81,6.81,0,0,0,.6-3.12Zm18.22,11H152.66V55.16L158.45,49a14.4,14.4,0,0,0,1.76-2.28,3.65,3.65,0,0,0,.58-1.84,2.76,2.76,0,0,0-.61-1.88,2.18,2.18,0,0,0-1.72-.68,2.37,2.37,0,0,0-1.9.83,3.31,3.31,0,0,0-.69,2.18H152.3a5.84,5.84,0,0,1,.78-3,5.51,5.51,0,0,1,2.21-2.12,6.62,6.62,0,0,1,3.23-.77,6.32,6.32,0,0,1,4.3,1.33,4.68,4.68,0,0,1,1.53,3.74,6,6,0,0,1-.69,2.71,14.8,14.8,0,0,1-2.36,3.21l-4.07,4.29h7.7Zm14.44,0H167.1V55.16L172.89,49a14,14,0,0,0,1.77-2.28,3.63,3.63,0,0,0,.57-1.84,2.76,2.76,0,0,0-.6-1.88,2.22,2.22,0,0,0-1.73-.68,2.34,2.34,0,0,0-1.89.83,3.26,3.26,0,0,0-.7,2.18h-3.56a5.84,5.84,0,0,1,.78-3,5.48,5.48,0,0,1,2.2-2.12,6.63,6.63,0,0,1,3.24-.77,6.31,6.31,0,0,1,4.29,1.33,4.68,4.68,0,0,1,1.53,3.74,6,6,0,0,1-.69,2.71,14.47,14.47,0,0,1-2.36,3.21l-4.06,4.29h7.69Zm-13,88.12V161h-2.16V147.61h-3.44v-1.9Zm107.74,13.38V161h-11V159.5l6.21-6c1.62-1.57,1.92-2.53,1.92-3.48,0-1.57-1.11-2.53-3.25-2.53a4.81,4.81,0,0,0-3.9,1.65l-1.48-1.28a7,7,0,0,1,5.58-2.31c3.18,0,5.23,1.63,5.23,4.25,0,1.48-.44,2.81-2.51,4.79l-4.66,4.49Zm107.78-2.7c0,2.57-1.89,4.66-5.77,4.66a8.66,8.66,0,0,1-5.6-1.85l1-1.72a6.85,6.85,0,0,0,4.6,1.63c2.29,0,3.59-1.05,3.59-2.7s-1.15-2.66-3.77-2.66H374.7v-1.52l3.84-4.71h-7.35v-1.9h10.07v1.49l-4,4.92C380.32,152.31,381.87,154,381.87,156.39Zm107.7.79h-2.9v3.75h-2.11v-3.75h-8.48v-1.52l7.8-10h2.35l-7.47,9.63h5.86V152h2.05v3.31h2.9Zm107.7-.88c0,2.64-1.87,4.75-5.77,4.75a8.71,8.71,0,0,1-5.6-1.85l1-1.72a6.87,6.87,0,0,0,4.58,1.63c2.31,0,3.61-1.06,3.61-2.72s-1.09-2.79-4.61-2.79H587l.81-8h8.6v1.89h-6.77l-.42,4.19h1.7C595.49,151.71,597.27,153.6,597.27,156.3Zm107.86,0c0,2.94-2.37,4.81-5.4,4.81-4.1,0-6.41-2.74-6.41-7.6,0-5.21,2.94-8,7.22-8a7.36,7.36,0,0,1,3.79.89l-.83,1.7a5.33,5.33,0,0,0-2.92-.72c-3.09,0-5.08,1.94-5.08,5.76a5.15,5.15,0,0,0,0,.54,5.07,5.07,0,0,1,4.38-2C702.93,151.72,705.13,153.52,705.13,156.34Zm-2.11.08c0-1.78-1.35-2.94-3.49-2.94s-3.5,1.29-3.5,3,1.26,2.95,3.61,2.95C701.62,159.39,703,158.23,703,156.42Zm109.83-10.78v1.49l-6.16,13.77h-2.31l6-13.36h-7v2.72h-2.09v-4.62ZM166.36,231.56c0,2.77-2.35,4.49-6.08,4.49s-6-1.72-6-4.49a3.79,3.79,0,0,1,2.68-3.68,3.43,3.43,0,0,1-2.14-3.29c0-2.55,2.2-4.14,5.49-4.14s5.54,1.59,5.54,4.14a3.45,3.45,0,0,1-2.16,3.29A3.8,3.8,0,0,1,166.36,231.56Zm-2.18-.06c0-1.68-1.48-2.72-3.9-2.72s-3.85,1-3.85,2.72,1.44,2.79,3.85,2.79S164.18,233.22,164.18,231.5ZM157,224.68c0,1.5,1.24,2.44,3.33,2.44s3.4-.94,3.4-2.44-1.35-2.46-3.4-2.46S157,223.15,157,224.68ZM274.1,228c0,5.21-2.94,8-7.21,8a7.34,7.34,0,0,1-3.79-.9l.83-1.7a5.31,5.31,0,0,0,2.94.72c3.09,0,5.06-1.94,5.06-5.75v-.54a5.1,5.1,0,0,1-4.41,2c-3,0-5.2-1.81-5.2-4.62s2.35-4.81,5.38-4.81C271.8,220.38,274.1,223.12,274.1,228Zm-2.68-2.9c0-1.57-1.26-2.94-3.63-2.94-2,0-3.36,1.16-3.36,3s1.33,3,3.47,3S271.42,226.76,271.42,225.08Zm94.49-4.53V235.8h-2.15V222.44h-3.45v-1.89Zm3.33,7.62c0-5,2.66-7.8,6.23-7.8s6.21,2.84,6.21,7.8S379,236,375.47,236,369.24,233.14,369.24,228.17Zm10.27,0c0-3.9-1.66-5.86-4-5.86s-4.05,2-4.05,5.86,1.66,5.87,4.05,5.87S379.51,232.07,379.51,228.17Zm102-7.76v15.25H479.4V222.3H476v-1.89Zm8.06,0v15.25h-2.16V222.3H484v-1.89Zm93.64.05v15.26H581.1V222.36h-3.45v-1.9Zm14,13.36v1.9h-11v-1.48l6.21-6c1.61-1.57,1.92-2.52,1.92-3.48,0-1.57-1.11-2.53-3.25-2.53a4.78,4.78,0,0,0-3.9,1.66l-1.48-1.29a7,7,0,0,1,5.58-2.31c3.18,0,5.23,1.63,5.23,4.25,0,1.48-.44,2.81-2.51,4.79l-4.66,4.49Zm93.94-13.4v15.25h-2.16V222.31h-3.44v-1.89ZM705,231.18c0,2.57-1.9,4.66-5.78,4.66a8.63,8.63,0,0,1-5.6-1.85l1-1.72a6.89,6.89,0,0,0,4.6,1.64c2.29,0,3.6-1,3.6-2.71s-1.16-2.65-3.77-2.65h-1.22V227l3.83-4.71h-7.34v-1.89H704.4v1.48l-4,4.92C703.46,227.11,705,228.83,705,231.18Zm91.19-10.8v15.25H794V222.27H790.6v-1.89Zm16.6,11.5h-2.9v3.75h-2.12v-3.75h-8.47v-1.52l7.8-10h2.35L802,230h5.86V226.7h2V230h2.9ZM152.33,295.29v15.25h-2.16V297.18h-3.44v-1.89Zm14,10.67c0,2.64-1.88,4.75-5.77,4.75a8.69,8.69,0,0,1-5.6-1.85l1-1.72a6.82,6.82,0,0,0,4.57,1.63c2.31,0,3.62-1.06,3.62-2.72s-1.09-2.79-4.62-2.79H156.1l.8-8h8.61v1.89h-6.78l-.41,4.19H160C164.57,301.37,166.36,303.26,166.36,306Zm92.56-10.56v15.25h-2.16V297.3h-3.44v-1.9ZM274.06,306c0,2.94-2.38,4.82-5.41,4.82-4.09,0-6.4-2.75-6.4-7.61,0-5.2,2.94-8,7.21-8a7.33,7.33,0,0,1,3.79.89l-.83,1.7a5.31,5.31,0,0,0-2.92-.72c-3.09,0-5.07,1.94-5.07,5.75a5.24,5.24,0,0,0,0,.55,5.07,5.07,0,0,1,4.38-2C271.86,301.39,274.06,303.2,274.06,306Zm-2.12.09c0-1.79-1.35-2.94-3.48-2.94s-3.51,1.29-3.51,3,1.26,2.94,3.61,2.94C270.55,309.06,271.94,307.91,271.94,306.1Zm95.41-10.85V310.5h-2.16V297.14h-3.44v-1.89Zm14.44,0v1.48l-6.16,13.77h-2.31l6-13.36h-7v2.72h-2.09v-4.61Zm92.35.27v15.25H472V297.41h-3.44v-1.89Zm15.36,10.93c0,2.77-2.36,4.49-6.08,4.49s-6-1.72-6-4.49a3.79,3.79,0,0,1,2.68-3.68,3.45,3.45,0,0,1-2.13-3.29c0-2.55,2.2-4.14,5.49-4.14s5.53,1.59,5.53,4.14a3.47,3.47,0,0,1-2.15,3.29A3.8,3.8,0,0,1,489.5,306.45Zm-2.18-.06c0-1.68-1.48-2.73-3.9-2.73s-3.86,1-3.86,2.73,1.44,2.79,3.86,2.79S487.32,308.11,487.32,306.39Zm-7.24-6.82c0,1.5,1.25,2.44,3.34,2.44s3.4-.94,3.4-2.44-1.35-2.46-3.4-2.46S480.08,298,480.08,299.57Zm102.44-4.1v15.26h-2.16V297.37h-3.44v-1.9Zm14.68,7.43c0,5.21-2.94,8-7.21,8a7.33,7.33,0,0,1-3.79-.89l.83-1.7A5.38,5.38,0,0,0,590,309c3.09,0,5-1.94,5-5.76v-.54a5.07,5.07,0,0,1-4.4,2c-3,0-5.21-1.8-5.21-4.61s2.36-4.82,5.38-4.82C594.89,295.3,597.2,298.05,597.2,302.9ZM594.52,300c0-1.57-1.26-2.94-3.64-2.94-2,0-3.35,1.15-3.35,3S588.86,303,591,303,594.52,301.68,594.52,300Zm96.26,8.79v1.89h-11v-1.48l6.21-6c1.62-1.57,1.92-2.53,1.92-3.49,0-1.56-1.11-2.52-3.25-2.52a4.81,4.81,0,0,0-3.9,1.65l-1.48-1.28a7,7,0,0,1,5.58-2.31c3.18,0,5.23,1.63,5.23,4.25,0,1.48-.44,2.81-2.51,4.79L683,308.8Zm1.79-5.73c0-5,2.65-7.8,6.23-7.8s6.2,2.83,6.2,7.8-2.65,7.8-6.2,7.8S692.57,308,692.57,303.07Zm10.26,0c0-3.9-1.66-5.86-4-5.86s-4.06,2-4.06,5.86,1.66,5.86,4.06,5.86S702.83,307,702.83,303.07Zm103.39,5.73v1.9h-11v-1.48l6.21-6c1.61-1.57,1.92-2.53,1.92-3.49,0-1.57-1.11-2.53-3.25-2.53a4.78,4.78,0,0,0-3.9,1.66l-1.48-1.29a7,7,0,0,1,5.58-2.31c3.18,0,5.22,1.64,5.22,4.25,0,1.48-.43,2.81-2.5,4.79l-4.66,4.49Zm6.51-13.35V310.7h-2.16V297.34h-3.44v-1.89ZM153.82,383.5v1.9h-11v-1.48l6.21-6c1.61-1.57,1.92-2.52,1.92-3.48,0-1.57-1.11-2.53-3.25-2.53a4.78,4.78,0,0,0-3.9,1.66l-1.48-1.29a7,7,0,0,1,5.58-2.31c3.18,0,5.23,1.63,5.23,4.25,0,1.48-.44,2.81-2.51,4.79L146,383.5Zm12.5,0v1.9h-11v-1.48l6.21-6c1.62-1.57,1.92-2.52,1.92-3.48,0-1.57-1.11-2.53-3.25-2.53a4.78,4.78,0,0,0-3.9,1.66l-1.48-1.29a7,7,0,0,1,5.58-2.31c3.18,0,5.23,1.63,5.23,4.25,0,1.48-.44,2.81-2.51,4.79l-4.66,4.49Zm95.59.11v1.89H251V384l6.21-6c1.61-1.57,1.91-2.53,1.91-3.49,0-1.57-1.11-2.53-3.24-2.53a4.79,4.79,0,0,0-3.9,1.66l-1.49-1.29a7.08,7.08,0,0,1,5.58-2.3c3.18,0,5.23,1.63,5.23,4.24,0,1.49-.43,2.81-2.5,4.8l-4.67,4.49Zm12.21-2.6c0,2.57-1.89,4.67-5.77,4.67a8.63,8.63,0,0,1-5.6-1.86l1-1.72a6.89,6.89,0,0,0,4.6,1.64c2.29,0,3.59-1.05,3.59-2.71s-1.15-2.65-3.77-2.65H267v-1.53l3.84-4.7h-7.34v-1.9h10.06v1.48l-4,4.92C272.58,376.94,274.12,378.66,274.12,381Zm92.62,2.49v1.9h-11v-1.48l6.21-6c1.61-1.57,1.91-2.53,1.91-3.49,0-1.57-1.11-2.53-3.24-2.53a4.76,4.76,0,0,0-3.9,1.66l-1.48-1.29a7,7,0,0,1,5.57-2.31c3.19,0,5.23,1.64,5.23,4.25,0,1.48-.43,2.81-2.5,4.79l-4.66,4.49Zm15.05-1.85h-2.9v3.75h-2.11v-3.75H368.3v-1.52l7.8-10h2.35L371,379.78h5.86v-3.32h2.05v3.32h2.9Zm95.29,2v1.89h-11v-1.48l6.21-6c1.61-1.57,1.92-2.53,1.92-3.49,0-1.57-1.11-2.52-3.25-2.52a4.81,4.81,0,0,0-3.9,1.65l-1.48-1.28a7,7,0,0,1,5.58-2.31c3.18,0,5.23,1.63,5.23,4.24,0,1.49-.44,2.82-2.51,4.8l-4.66,4.49ZM489.56,381c0,2.63-1.87,4.75-5.77,4.75a8.71,8.71,0,0,1-5.6-1.86l1-1.72a6.86,6.86,0,0,0,4.58,1.64c2.31,0,3.61-1.07,3.61-2.73s-1.09-2.79-4.62-2.79H479.3l.81-8h8.6v1.9h-6.77l-.42,4.18h1.7C487.78,376.39,489.56,378.28,489.56,381Zm94.19,2.55v1.89h-11V384l6.21-6c1.62-1.57,1.92-2.53,1.92-3.48,0-1.57-1.11-2.53-3.25-2.53a4.81,4.81,0,0,0-3.9,1.65l-1.48-1.28a7,7,0,0,1,5.58-2.31c3.18,0,5.23,1.63,5.23,4.25,0,1.48-.44,2.81-2.51,4.79l-4.66,4.49Zm13.59-2.75c0,2.94-2.37,4.82-5.4,4.82-4.09,0-6.4-2.75-6.4-7.61,0-5.2,2.94-8,7.21-8a7.36,7.36,0,0,1,3.79.89l-.83,1.7a5.31,5.31,0,0,0-2.92-.72c-3.09,0-5.08,1.94-5.08,5.75a3.51,3.51,0,0,0,0,.55,5.06,5.06,0,0,1,4.37-2C595.14,376.17,597.34,378,597.34,380.79Zm-2.11.09c0-1.79-1.35-2.94-3.49-2.94s-3.5,1.29-3.5,3,1.26,2.94,3.61,2.94C593.84,383.84,595.23,382.69,595.23,380.88Zm96.88,2.79v1.89h-11v-1.48l6.21-6c1.62-1.57,1.92-2.53,1.92-3.49,0-1.57-1.11-2.52-3.24-2.52a4.78,4.78,0,0,0-3.9,1.65l-1.49-1.28a7,7,0,0,1,5.58-2.31c3.18,0,5.23,1.63,5.23,4.24,0,1.49-.44,2.82-2.51,4.8l-4.66,4.49ZM705,370.31v1.48l-6.17,13.77h-2.31l6-13.35h-7v2.72H693.5v-4.62Zm93.91,13.33v1.9H788v-1.48l6.21-6c1.61-1.57,1.92-2.53,1.92-3.49,0-1.57-1.11-2.53-3.25-2.53a4.78,4.78,0,0,0-3.9,1.66l-1.48-1.29a7,7,0,0,1,5.58-2.31c3.18,0,5.23,1.64,5.23,4.25,0,1.48-.44,2.81-2.51,4.79l-4.66,4.49Zm13.81-2.42c0,2.77-2.35,4.49-6.08,4.49s-6-1.72-6-4.49a3.78,3.78,0,0,1,2.68-3.68,3.43,3.43,0,0,1-2.14-3.29c0-2.55,2.2-4.14,5.49-4.14s5.53,1.59,5.53,4.14a3.46,3.46,0,0,1-2.15,3.29A3.8,3.8,0,0,1,812.73,381.22Zm-2.18-.06c0-1.68-1.48-2.72-3.9-2.72s-3.86,1-3.86,2.72,1.44,2.79,3.86,2.79S810.55,382.88,810.55,381.16Zm-7.23-6.82c0,1.5,1.24,2.44,3.33,2.44s3.4-.94,3.4-2.44-1.35-2.46-3.4-2.46S803.32,372.81,803.32,374.34ZM153,458.43v1.9H142v-1.48l6.21-6c1.62-1.57,1.92-2.53,1.92-3.49,0-1.57-1.11-2.53-3.25-2.53a4.78,4.78,0,0,0-3.9,1.66l-1.48-1.29a7,7,0,0,1,5.58-2.31c3.18,0,5.23,1.64,5.23,4.25,0,1.48-.44,2.81-2.51,4.79l-4.66,4.49Zm13.14-5.92c0,5.2-3,8-7.22,8a7.36,7.36,0,0,1-3.79-.89l.83-1.7a5.4,5.4,0,0,0,2.94.72c3.1,0,5.06-1.94,5.06-5.75v-.55a5.1,5.1,0,0,1-4.4,2c-3,0-5.21-1.81-5.21-4.62s2.35-4.82,5.38-4.82C163.8,444.9,166.11,447.65,166.11,452.51Zm-2.68-2.9c0-1.57-1.27-2.94-3.64-2.94-2,0-3.36,1.15-3.36,3s1.33,2.94,3.47,2.94S163.43,451.29,163.43,449.61Zm96.28,6.1c0,2.58-1.9,4.67-5.78,4.67a8.63,8.63,0,0,1-5.6-1.86l1-1.72a6.89,6.89,0,0,0,4.6,1.64c2.29,0,3.6-1.05,3.6-2.7s-1.16-2.66-3.77-2.66h-1.22v-1.53l3.83-4.7H249V445H259.1v1.48l-4,4.93C258.16,451.64,259.71,453.36,259.71,455.71Zm2-3.13c0-5,2.65-7.8,6.23-7.8s6.21,2.83,6.21,7.8-2.66,7.8-6.21,7.8S261.73,457.54,261.73,452.58Zm10.26,0c0-3.9-1.66-5.86-4-5.86s-4,2-4,5.86,1.65,5.86,4,5.86S272,456.48,272,452.58Zm103,3.13c0,2.57-1.9,4.66-5.78,4.66a8.65,8.65,0,0,1-5.6-1.85l1-1.72a6.84,6.84,0,0,0,4.59,1.63c2.29,0,3.6-1,3.6-2.7s-1.16-2.66-3.77-2.66h-1.22v-1.52l3.83-4.71h-7.34V445h10.07v1.48l-4,4.92C373.47,451.64,375,453.36,375,455.71ZM381.77,445V460.2h-2.16V446.84h-3.44V445Z" transform="translate(-62.76 -39.45)"/><rect class="cls-6" x="323.71" y="326.32" width="107.74" height="74.8"/><polygon class="cls-7" points="108.24 102.43 108.24 195.68 108.24 288.92 108.24 382.16 108.24 475.41 215.97 475.41 215.97 382.16 215.97 288.92 215.97 195.68 215.97 102.43 108.24 102.43"/><rect class="cls-6" x="539.18" y="251.52" width="107.74" height="74.8"/><polygon class="cls-8" points="196.16 256.08 196.16 271.34 194 271.34 194 257.98 190.56 257.98 190.56 256.08 196.16 256.08"/><path class="cls-8" d="M274.06,306.14c0,2.95-2.38,4.82-5.41,4.82-4.09,0-6.4-2.75-6.4-7.61,0-5.2,2.94-8,7.21-8a7.33,7.33,0,0,1,3.79.89l-.83,1.7a5.31,5.31,0,0,0-2.92-.72c-3.09,0-5.07,1.94-5.07,5.76a5.15,5.15,0,0,0,0,.54,5.06,5.06,0,0,1,4.38-2C271.86,301.53,274.06,303.33,274.06,306.14Z" transform="translate(-62.76 -39.45)"/><path class="cls-8" d="M271.94,306.23c0-1.79-1.35-2.94-3.48-2.94s-3.51,1.29-3.51,3,1.26,2.94,3.61,2.94C270.55,309.19,271.94,308,271.94,306.23Z" transform="translate(-62.76 -39.45)"/><path class="cls-8" d="M274.1,228c0,5.21-2.94,8-7.21,8a7.34,7.34,0,0,1-3.79-.9l.83-1.7a5.31,5.31,0,0,0,2.94.72c3.09,0,5.06-1.94,5.06-5.75v-.54a5.1,5.1,0,0,1-4.41,2c-3,0-5.2-1.81-5.2-4.62s2.35-4.81,5.38-4.81C271.8,220.38,274.1,223.12,274.1,228Z" transform="translate(-62.76 -39.45)"/><path class="cls-9" d="M271.42,225.08c0-1.57-1.26-2.94-3.63-2.94-2,0-3.36,1.16-3.36,3s1.33,3,3.47,3S271.42,226.76,271.42,225.08Z" transform="translate(-62.76 -39.45)"/><path class="cls-8" d="M274.09,159.09V161h-11V159.5l6.21-6c1.62-1.57,1.92-2.53,1.92-3.48,0-1.57-1.11-2.53-3.25-2.53a4.81,4.81,0,0,0-3.9,1.65l-1.48-1.28a7,7,0,0,1,5.58-2.31c3.18,0,5.23,1.63,5.23,4.25,0,1.48-.44,2.81-2.51,4.79l-4.66,4.49Z" transform="translate(-62.76 -39.45)"/><path class="cls-7" d="M271.42,225.08c0-1.57-1.26-2.94-3.63-2.94-2,0-3.36,1.16-3.36,3s1.33,3,3.47,3S271.42,226.76,271.42,225.08Z" transform="translate(-62.76 -39.45)"/><path class="cls-7" d="M271.94,306.1c0-1.79-1.35-2.94-3.48-2.94s-3.51,1.29-3.51,3,1.26,2.94,3.61,2.94C270.55,309.06,271.94,307.91,271.94,306.1Z" transform="translate(-62.76 -39.45)"/><path class="cls-8" d="M261.91,383.61v1.89H251V384l6.21-6c1.61-1.57,1.91-2.53,1.91-3.49,0-1.57-1.11-2.53-3.24-2.53a4.79,4.79,0,0,0-3.9,1.66l-1.49-1.29a7.08,7.08,0,0,1,5.58-2.3c3.18,0,5.23,1.63,5.23,4.24,0,1.49-.43,2.81-2.5,4.8l-4.67,4.49Z" transform="translate(-62.76 -39.45)"/><path class="cls-8" d="M274.12,381c0,2.57-1.89,4.67-5.77,4.67a8.63,8.63,0,0,1-5.6-1.86l1-1.72a6.89,6.89,0,0,0,4.6,1.64c2.29,0,3.59-1.05,3.59-2.71s-1.15-2.65-3.77-2.65H267v-1.53l3.84-4.7h-7.34v-1.9h10.06v1.48l-4,4.92C272.58,376.94,274.12,378.66,274.12,381Z" transform="translate(-62.76 -39.45)"/><path class="cls-8" d="M259.71,455.71c0,2.58-1.9,4.67-5.78,4.67a8.63,8.63,0,0,1-5.6-1.86l1-1.72a6.89,6.89,0,0,0,4.6,1.64c2.29,0,3.6-1.05,3.6-2.7s-1.16-2.66-3.77-2.66h-1.22v-1.53l3.83-4.7H249V445H259.1v1.48l-4,4.93C258.16,451.64,259.71,453.36,259.71,455.71Z" transform="translate(-62.76 -39.45)"/><path class="cls-8" d="M261.73,452.58c0-5,2.65-7.8,6.23-7.8s6.21,2.83,6.21,7.8-2.66,7.8-6.21,7.8S261.73,457.54,261.73,452.58Z" transform="translate(-62.76 -39.45)"/><path class="cls-8" d="M272,452.58c0-3.9-1.66-5.86-4-5.86s-4,2-4,5.86,1.65,5.86,4,5.86S272,456.48,272,452.58Z" transform="translate(-62.76 -39.45)"/><path class="cls-7" d="M272,452.7c0-3.9-1.66-5.86-4-5.86s-4,2-4,5.86,1.65,5.86,4,5.86S272,456.6,272,452.7Z" transform="translate(-62.76 -39.45)"/><rect class="cls-6" x="646.92" y="325.82" width="107.74" height="74.8"/><rect class="cls-6" x="539.18" y="325.82" width="107.74" height="74.8"/><rect class="cls-6" x="215.97" y="326.32" width="107.74" height="74.8"/><rect class="cls-6" x="646.92" y="251.52" width="107.74" height="74.8"/><rect class="cls-6" x="646.92" y="176.73" width="107.74" height="74.8"/><rect class="cls-6" x="323.71" y="251.52" width="107.74" height="74.8"/></svg>