<svg xmlns="http://www.w3.org/2000/svg" xmlns:xlink="http://www.w3.org/1999/xlink" viewBox="1 -300 1 280" version="1.1" class="jsx-2263963463 artboard-inner" style="width: 296px;height: 122.328px;max-height: 100%;">
	
	<g transform="translate(-132.0524315311802 -287.0565519673662) scale(8.253276970698762)" id="logomark">
		<g fill="#555555">
			<path d="M11.345 6.366H7.632v3.713l-3.627 3.627v-7.34H0v19.269h4.005v-7.34l3.627 3.627v3.713h3.713l5.511 5.511L32 16 16.855.855l-5.51 5.511zm-3.713 5.127v2.505H5.127l2.505-2.505zm-2.505 6.509h2.505v2.505l-2.505-2.505zm5.51 0v6.632H8.632v-7.632H3.005v7.632H1V7.366h2.005v7.632h5.627V7.366h2.005v7.632h5.627V7.366h2.005v17.269h-2.005v-7.632h-5.627v.999zm6.218 11.729l-5.218-5.218v-6.51h3.627v7.632h4.005V6.366h-4.005v7.632h-3.627v-6.51l5.218-5.218L30.586 16 16.855 29.731z"/>
		</g>
	</g>
</svg>