<svg viewBox="-253.29312739767943 -98.99999999999999 1309.4710390442656 199.99999999999997" xmlns="http://www.w3.org/2000/svg" xmlns:xlink="http://www.w3.org/1999/xlink" version="1.1" class="jsx-2263963463 artboard-inner" style="width: 340px; height: 51.9294px; max-height: 100%;">
	<g transform="translate(-10.291164658634537 39.14257028112449) scale(1.42793395805444)" fill="#c99b61">
		<g id="line1">
			<path d="M64.582-16.277L64.582-16.277L64.582-48.305L51.539-48.305L51.539-20.953C51.539-19.336 51.340-17.807 50.941-16.365C50.543-14.924 49.775-13.664 48.639-12.586C47.502-11.508 45.914-10.652 43.875-10.020C41.836-9.387 39.188-9.070 35.930-9.070C32.648-9.070 29.982-9.387 27.932-10.020C25.881-10.652 24.287-11.508 23.150-12.586C22.014-13.664 21.240-14.924 20.830-16.365C20.420-17.807 20.215-19.336 20.215-20.953L20.215-48.305L7.207-48.305L7.207-16.277C7.207-13.863 7.805-11.590 9-9.457C10.195-7.324 11.988-5.461 14.379-3.867C16.770-2.273 19.764-1.014 23.361-0.088C26.959 0.838 31.148 1.301 35.930 1.301C40.711 1.301 44.889 0.838 48.463-0.088C52.037-1.014 55.020-2.273 57.410-3.867C59.801-5.461 61.594-7.324 62.789-9.457C63.984-11.590 64.582-13.863 64.582-16.277Z"></path>
			<path d="M131.865-31.816C131.865-34.230 131.513-36.445 130.810-38.461C130.107-40.477 128.976-42.217 127.418-43.682C125.859-45.146 123.838-46.283 121.353-47.092C118.869-47.900 115.845-48.305 112.283-48.305L77.584-48.305L77.584 0L90.627 0L90.627-15.258L112.283-15.258C115.845-15.258 118.869-15.668 121.353-16.488C123.838-17.309 125.859-18.451 127.418-19.916C128.976-21.381 130.107-23.127 130.810-25.154C131.513-27.182 131.865-29.402 131.865-31.816ZM118.681-31.605C118.681-30.480 118.523-29.531 118.207-28.758C117.890-27.984 117.369-27.357 116.642-26.877C115.916-26.396 114.966-26.057 113.795-25.857C112.623-25.658 111.181-25.559 109.470-25.559L90.627-25.559L90.627-38.004L109.470-38.004C111.181-38.004 112.623-37.881 113.795-37.635C114.966-37.389 115.916-37.008 116.642-36.492C117.369-35.977 117.890-35.314 118.207-34.506C118.523-33.697 118.681-32.730 118.681-31.605Z"></path>
			<path d="M181.851 0L194.894 0L194.894-32.027C194.894-35.004 194.197-37.570 192.802-39.727C191.408-41.883 189.474-43.664 187.001-45.070C184.529-46.477 181.581-47.514 178.159-48.182C174.738-48.850 170.999-49.184 166.945-49.184C164.882-49.184 162.726-49.096 160.476-48.920C158.226-48.744 155.999-48.510 153.796-48.217C151.593-47.924 149.472-47.578 147.433-47.180C145.394-46.781 143.554-46.371 141.913-45.949L141.913-34.348C143.484-34.957 145.230-35.543 147.152-36.105C149.074-36.668 151.107-37.160 153.251-37.582C155.396-38.004 157.622-38.338 159.931-38.584C162.240-38.830 164.577-38.953 166.945-38.953C169.945-38.953 172.411-38.766 174.345-38.391C176.279-38.016 177.802-37.529 178.915-36.932C180.029-36.334 180.796-35.643 181.218-34.857C181.640-34.072 181.851-33.281 181.851-32.484L181.851-31.465C174.210-31.043 167.595-30.457 162.005-29.707C156.415-28.957 151.792-27.891 148.136-26.508C144.480-25.125 141.761-23.350 139.980-21.182C138.199-19.014 137.308-16.301 137.308-13.043C137.308-10.465 137.876-8.285 139.013-6.504C140.150-4.723 141.656-3.281 143.531-2.180C145.406-1.078 147.556-0.281 149.982 0.211C152.408 0.703 154.921 0.949 157.523 0.949C159.749 0.949 161.958 0.826 164.150 0.580C166.341 0.334 168.468-0.035 170.531-0.527C172.593-1.020 174.579-1.617 176.490-2.320C178.400-3.023 180.187-3.832 181.851-4.746ZM181.851-22.043L181.851-15.680C180.585-14.789 179.150-13.951 177.544-13.166C175.939-12.381 174.222-11.701 172.394-11.127C170.566-10.553 168.632-10.102 166.593-9.773C164.554-9.445 162.468-9.281 160.335-9.281C158.413-9.281 156.820-9.398 155.554-9.633C154.288-9.867 153.275-10.184 152.513-10.582C151.751-10.980 151.218-11.443 150.913-11.971C150.609-12.498 150.456-13.043 150.456-13.605C150.456-14.074 150.533-14.590 150.685-15.152C150.837-15.715 151.242-16.277 151.898-16.840C152.554-17.402 153.544-17.953 154.868-18.492C156.193-19.031 158.015-19.535 160.335-20.004C162.656-20.473 165.568-20.883 169.072-21.234C172.576-21.586 176.835-21.855 181.851-22.043ZM157.101-60.328C157.101-59.180 157.329-58.096 157.786-57.076C158.243-56.057 158.917-55.160 159.808-54.387C160.699-53.613 161.806-53.004 163.130-52.559C164.454-52.113 165.995-51.891 167.753-51.891C169.488-51.891 171.017-52.113 172.341-52.559C173.665-53.004 174.779-53.613 175.681-54.387C176.583-55.160 177.263-56.057 177.720-57.076C178.177-58.096 178.406-59.180 178.406-60.328C178.406-61.477 178.177-62.561 177.720-63.580C177.263-64.600 176.583-65.490 175.681-66.252C174.779-67.014 173.665-67.617 172.341-68.063C171.017-68.508 169.488-68.730 167.753-68.730C165.995-68.730 164.454-68.508 163.130-68.063C161.806-67.617 160.699-67.014 159.808-66.252C158.917-65.490 158.243-64.600 157.786-63.580C157.329-62.561 157.101-61.477 157.101-60.328ZM164.273-60.328C164.273-61.266 164.572-62.062 165.169-62.719C165.767-63.375 166.628-63.703 167.753-63.703C168.878-63.703 169.722-63.375 170.284-62.719C170.847-62.062 171.128-61.266 171.128-60.328C171.128-59.367 170.847-58.559 170.284-57.902C169.722-57.246 168.878-56.918 167.753-56.918C166.628-56.918 165.767-57.246 165.169-57.902C164.572-58.559 164.273-59.367 164.273-60.328Z"></path>
			<path d="M253.915 0L267.204 0C266.970-2.813 266.431-5.344 265.587-7.594C264.743-9.844 263.688-11.848 262.423-13.605C261.157-15.363 259.733-16.898 258.151-18.211C256.569-19.523 254.911-20.631 253.177-21.533C251.442-22.436 249.690-23.162 247.921-23.713C246.151-24.264 244.446-24.668 242.806-24.926C244.095-25.230 245.483-25.670 246.972-26.244C248.460-26.818 249.954-27.545 251.454-28.424C252.954-29.303 254.419-30.352 255.849-31.570C257.278-32.789 258.573-34.213 259.733-35.842C260.894-37.471 261.866-39.316 262.651-41.379C263.437-43.441 263.946-45.750 264.181-48.305L250.892-48.305C250.657-45.984 250.071-43.916 249.134-42.100C248.196-40.283 247.024-38.684 245.618-37.301C244.212-35.918 242.618-34.746 240.837-33.785C239.056-32.824 237.198-32.039 235.265-31.430C233.331-30.820 231.380-30.375 229.411-30.094C227.442-29.813 225.556-29.672 223.751-29.672L221.079-29.672L221.079-48.305L208.036-48.305L208.036 0L221.079 0L221.079-19.301L224.946-19.301C226.704-19.301 228.608-19.189 230.659-18.967C232.710-18.744 234.767-18.357 236.829-17.807C238.892-17.256 240.901-16.512 242.858-15.574C244.815-14.637 246.573-13.453 248.132-12.023C249.690-10.594 250.985-8.889 252.017-6.908C253.048-4.928 253.681-2.625 253.915 0Z"></path>
			<path d="M289.663-20.672L289.663-48.305L276.620-48.305L276.620-15.855C276.620-13.113 277.001-10.746 277.762-8.754C278.524-6.762 279.749-5.115 281.436-3.814C283.124-2.514 285.298-1.553 287.958-0.932C290.618-0.311 293.846 0 297.643 0L325.065 0L325.065-10.723L300.315-10.723C298.346-10.723 296.688-10.863 295.340-11.145C293.993-11.426 292.897-11.941 292.053-12.691C291.210-13.441 290.600-14.455 290.225-15.732C289.850-17.010 289.663-18.656 289.663-20.672Z"></path>
			<path d="M374.700 0L387.742 0L387.742-32.027C387.742-35.004 387.045-37.570 385.651-39.727C384.256-41.883 382.323-43.664 379.850-45.070C377.377-46.477 374.430-47.514 371.008-48.182C367.586-48.850 363.848-49.184 359.793-49.184C357.731-49.184 355.575-49.096 353.325-48.920C351.075-48.744 348.848-48.510 346.645-48.217C344.442-47.924 342.321-47.578 340.282-47.180C338.242-46.781 336.403-46.371 334.762-45.949L334.762-34.348C336.332-34.957 338.078-35.543 340.000-36.105C341.922-36.668 343.955-37.160 346.100-37.582C348.244-38.004 350.471-38.338 352.780-38.584C355.088-38.830 357.426-38.953 359.793-38.953C362.793-38.953 365.260-38.766 367.194-38.391C369.127-38.016 370.651-37.529 371.764-36.932C372.877-36.334 373.645-35.643 374.067-34.857C374.489-34.072 374.700-33.281 374.700-32.484L374.700-31.465C367.059-31.043 360.444-30.457 354.854-29.707C349.264-28.957 344.641-27.891 340.985-26.508C337.328-25.125 334.610-23.350 332.828-21.182C331.047-19.014 330.157-16.301 330.157-13.043C330.157-10.465 330.725-8.285 331.862-6.504C332.998-4.723 334.504-3.281 336.379-2.180C338.254-1.078 340.405-0.281 342.830 0.211C345.256 0.703 347.770 0.949 350.371 0.949C352.598 0.949 354.807 0.826 356.998 0.580C359.190 0.334 361.317-0.035 363.379-0.527C365.442-1.020 367.428-1.617 369.338-2.320C371.248-3.023 373.035-3.832 374.700-4.746ZM374.700-22.043L374.700-15.680C373.434-14.789 371.998-13.951 370.393-13.166C368.787-12.381 367.071-11.701 365.242-11.127C363.414-10.553 361.481-10.102 359.442-9.773C357.403-9.445 355.317-9.281 353.184-9.281C351.262-9.281 349.668-9.398 348.403-9.633C347.137-9.867 346.123-10.184 345.362-10.582C344.600-10.980 344.067-11.443 343.762-11.971C343.457-12.498 343.305-13.043 343.305-13.605C343.305-14.074 343.381-14.590 343.534-15.152C343.686-15.715 344.090-16.277 344.746-16.840C345.403-17.402 346.393-17.953 347.717-18.492C349.041-19.031 350.864-19.535 353.184-20.004C355.504-20.473 358.416-20.883 361.920-21.234C365.424-21.586 369.684-21.855 374.700-22.043Z"></path>
			<path d="M431.998-49.535C428.928-49.535 425.945-49.324 423.051-48.902C420.156-48.480 417.437-47.830 414.895-46.951C412.352-46.072 410.020-44.953 407.898-43.594C405.777-42.234 403.961-40.617 402.449-38.742C400.937-36.867 399.760-34.711 398.916-32.273C398.072-29.836 397.650-27.117 397.650-24.117C397.650-21.094 398.055-18.369 398.863-15.943C399.672-13.518 400.809-11.367 402.273-9.492C403.738-7.617 405.508-6.000 407.582-4.641C409.656-3.281 411.953-2.162 414.473-1.283C416.992-0.404 419.705 0.246 422.611 0.668C425.518 1.090 428.553 1.301 431.717 1.301C433.756 1.301 435.924 1.207 438.221 1.020C440.518 0.832 442.809 0.568 445.094 0.229C447.379-0.111 449.594-0.521 451.738-1.002C453.883-1.482 455.822-2.016 457.557-2.602L457.557-27.281L429.889-27.281L429.889-16.699L444.514-16.699L444.514-10.863C443.623-10.605 442.762-10.359 441.930-10.125C441.098-9.891 440.207-9.691 439.258-9.527C438.309-9.363 437.260-9.234 436.111-9.141C434.963-9.047 433.615-9 432.068-9C428.998-9 426.350-9.240 424.123-9.721C421.896-10.201 419.992-10.840 418.410-11.637C416.828-12.434 415.545-13.348 414.561-14.379C413.576-15.410 412.809-16.488 412.258-17.613C411.707-18.738 411.332-19.863 411.133-20.988C410.934-22.113 410.834-23.156 410.834-24.117C410.834-25.219 410.951-26.355 411.186-27.527C411.420-28.699 411.842-29.848 412.451-30.973C413.061-32.098 413.893-33.158 414.947-34.154C416.002-35.150 417.350-36.023 418.990-36.773C420.631-37.523 422.600-38.121 424.896-38.566C427.193-39.012 429.889-39.234 432.982-39.234C435.467-39.234 437.834-39.070 440.084-38.742C442.334-38.414 444.443-37.980 446.412-37.441C448.381-36.902 450.203-36.281 451.879-35.578C453.555-34.875 455.061-34.148 456.396-33.398L456.396-45.211C452.998-46.477 449.266-47.514 445.199-48.322C441.133-49.131 436.732-49.535 431.998-49.535Z"></path>
			<path d="M523.679-2.391L523.679-13.676C522.695-13.090 521.400-12.504 519.795-11.918C518.189-11.332 516.390-10.799 514.398-10.318C512.406-9.838 510.261-9.451 507.964-9.158C505.668-8.865 503.324-8.719 500.933-8.719C497.558-8.719 494.658-8.965 492.232-9.457C489.806-9.949 487.761-10.641 486.097-11.531C484.433-12.422 483.115-13.500 482.142-14.766C481.170-16.031 480.472-17.426 480.050-18.949L527.652-18.949L527.652-22.184C527.652-26.613 526.931-30.527 525.490-33.926C524.048-37.324 522.021-40.184 519.408-42.504C516.795-44.824 513.666-46.576 510.021-47.760C506.377-48.943 502.363-49.535 497.980-49.535C493.222-49.535 488.910-48.885 485.043-47.584C481.175-46.283 477.877-44.479 475.146-42.170C472.416-39.861 470.306-37.143 468.818-34.014C467.330-30.885 466.586-27.492 466.586-23.836C466.586-19.898 467.324-16.371 468.800-13.254C470.277-10.137 472.422-7.500 475.234-5.344C478.047-3.188 481.509-1.541 485.623-0.404C489.736 0.732 494.429 1.301 499.703 1.301C503.828 1.301 507.865 1.014 511.814 0.439C515.763-0.135 519.718-1.078 523.679-2.391ZM514.679-28.512L480.050-28.512C480.285-29.566 480.800-30.715 481.597-31.957C482.394-33.199 483.513-34.359 484.955-35.438C486.396-36.516 488.183-37.418 490.316-38.145C492.449-38.871 494.980-39.234 497.910-39.234C501.027-39.234 503.629-38.900 505.714-38.232C507.800-37.564 509.488-36.715 510.777-35.684C512.066-34.652 513.009-33.498 513.607-32.221C514.205-30.943 514.562-29.707 514.679-28.512Z"></path>
			<path d="M550.779-20.672L550.779-48.305L537.736-48.305L537.736-15.855C537.736-13.113 538.117-10.746 538.878-8.754C539.640-6.762 540.865-5.115 542.552-3.814C544.240-2.514 546.413-1.553 549.074-0.932C551.734-0.311 554.962 0 558.759 0L586.181 0L586.181-10.723L561.431-10.723C559.462-10.723 557.804-10.863 556.456-11.145C555.109-11.426 554.013-11.941 553.169-12.691C552.325-13.441 551.716-14.455 551.341-15.732C550.966-17.010 550.779-18.656 550.779-20.672Z"></path>
			<path d="M594.858 0L607.901 0L607.901-48.305L594.858-48.305Z"></path>
			<path d="M652.368-49.535C649.298-49.535 646.315-49.324 643.421-48.902C640.526-48.480 637.807-47.830 635.264-46.951C632.721-46.072 630.389-44.953 628.268-43.594C626.147-42.234 624.331-40.617 622.819-38.742C621.307-36.867 620.130-34.711 619.286-32.273C618.442-29.836 618.020-27.117 618.020-24.117C618.020-21.094 618.424-18.369 619.233-15.943C620.042-13.518 621.178-11.367 622.643-9.492C624.108-7.617 625.878-6.000 627.952-4.641C630.026-3.281 632.323-2.162 634.842-1.283C637.362-0.404 640.075 0.246 642.981 0.668C645.887 1.090 648.922 1.301 652.087 1.301C654.126 1.301 656.294 1.207 658.590 1.020C660.887 0.832 663.178 0.568 665.464 0.229C667.749-0.111 669.964-0.521 672.108-1.002C674.253-1.482 676.192-2.016 677.926-2.602L677.926-27.281L650.258-27.281L650.258-16.699L664.883-16.699L664.883-10.863C663.993-10.605 663.131-10.359 662.299-10.125C661.467-9.891 660.577-9.691 659.628-9.527C658.678-9.363 657.630-9.234 656.481-9.141C655.333-9.047 653.985-9 652.438-9C649.368-9 646.719-9.240 644.493-9.721C642.266-10.201 640.362-10.840 638.780-11.637C637.198-12.434 635.915-13.348 634.930-14.379C633.946-15.410 633.178-16.488 632.628-17.613C632.077-18.738 631.702-19.863 631.503-20.988C631.303-22.113 631.204-23.156 631.204-24.117C631.204-25.219 631.321-26.355 631.555-27.527C631.790-28.699 632.212-29.848 632.821-30.973C633.430-32.098 634.262-33.158 635.317-34.154C636.372-35.150 637.719-36.023 639.360-36.773C641.001-37.523 642.969-38.121 645.266-38.566C647.563-39.012 650.258-39.234 653.352-39.234C655.837-39.234 658.204-39.070 660.454-38.742C662.704-38.414 664.813-37.980 666.782-37.441C668.751-36.902 670.573-36.281 672.249-35.578C673.924-34.875 675.430-34.148 676.766-33.398L676.766-45.211C673.368-46.477 669.635-47.514 665.569-48.322C661.503-49.131 657.102-49.535 652.368-49.535Z"></path>
			<path d="M721.303-49.535C718.233-49.535 715.250-49.324 712.356-48.902C709.461-48.480 706.742-47.830 704.200-46.951C701.657-46.072 699.325-44.953 697.203-43.594C695.082-42.234 693.266-40.617 691.754-38.742C690.242-36.867 689.065-34.711 688.221-32.273C687.377-29.836 686.955-27.117 686.955-24.117C686.955-21.094 687.360-18.369 688.168-15.943C688.977-13.518 690.114-11.367 691.578-9.492C693.043-7.617 694.813-6.000 696.887-4.641C698.961-3.281 701.258-2.162 703.778-1.283C706.297-0.404 709.010 0.246 711.916 0.668C714.823 1.090 717.858 1.301 721.022 1.301C723.061 1.301 725.229 1.207 727.526 1.020C729.823 0.832 732.114 0.568 734.399 0.229C736.684-0.111 738.899-0.521 741.043-1.002C743.188-1.482 745.127-2.016 746.862-2.602L746.862-27.281L719.194-27.281L719.194-16.699L733.819-16.699L733.819-10.863C732.928-10.605 732.067-10.359 731.235-10.125C730.403-9.891 729.512-9.691 728.563-9.527C727.614-9.363 726.565-9.234 725.416-9.141C724.268-9.047 722.920-9 721.373-9C718.303-9 715.655-9.240 713.428-9.721C711.201-10.201 709.297-10.840 707.715-11.637C706.133-12.434 704.850-13.348 703.866-14.379C702.881-15.410 702.114-16.488 701.563-17.613C701.012-18.738 700.637-19.863 700.438-20.988C700.239-22.113 700.139-23.156 700.139-24.117C700.139-25.219 700.256-26.355 700.491-27.527C700.725-28.699 701.147-29.848 701.756-30.973C702.366-32.098 703.198-33.158 704.252-34.154C705.307-35.150 706.655-36.023 708.295-36.773C709.936-37.523 711.905-38.121 714.201-38.566C716.498-39.012 719.194-39.234 722.287-39.234C724.772-39.234 727.139-39.070 729.389-38.742C731.639-38.414 733.748-37.980 735.717-37.441C737.686-36.902 739.508-36.281 741.184-35.578C742.860-34.875 744.366-34.148 745.701-33.398L745.701-45.211C742.303-46.477 738.571-47.514 734.504-48.322C730.438-49.131 726.037-49.535 721.303-49.535Z"></path>
		</g>
	</g>
	<g transform="translate(-253.29312739767943 -104.64524157389295) scale(6.6026215765590095)" id="logomark">
		<g fill="#c99b61">
			<path d="M11.345 6.366H7.632v3.713l-3.627 3.627v-7.34H0v19.269h4.005v-7.34l3.627 3.627v3.713h3.713l5.511 5.511L32 16 16.855.855l-5.51 5.511zm-3.713 5.127v2.505H5.127l2.505-2.505zm-2.505 6.509h2.505v2.505l-2.505-2.505zm5.51 0v6.632H8.632v-7.632H3.005v7.632H1V7.366h2.005v7.632h5.627V7.366h2.005v7.632h5.627V7.366h2.005v17.269h-2.005v-7.632h-5.627v.999zm6.218 11.729l-5.218-5.218v-6.51h3.627v7.632h4.005V6.366h-4.005v7.632h-3.627v-6.51l5.218-5.218L30.586 16 16.855 29.731z"></path>
		</g>
	</g>
</svg>